<?xml version="1.0" encoding="UTF-8" standalone="no"?>
<!-- Created with Inkscape (http://www.inkscape.org/) -->

<svg
   width="1280"
   height="640"
   viewBox="0 0 338.66666 169.33333"
   version="1.1"
   id="svg8"
   inkscape:version="1.2.2 (b0a8486541, 2022-12-01)"
   sodipodi:docname="vuldetta_scanvus.svg"
   xml:space="preserve"
   inkscape:export-filename="vuldetta_github.png"
   inkscape:export-xdpi="96"
   inkscape:export-ydpi="96"
   xmlns:inkscape="http://www.inkscape.org/namespaces/inkscape"
   xmlns:sodipodi="http://sodipodi.sourceforge.net/DTD/sodipodi-0.dtd"
   xmlns="http://www.w3.org/2000/svg"
   xmlns:svg="http://www.w3.org/2000/svg"
   xmlns:rdf="http://www.w3.org/1999/02/22-rdf-syntax-ns#"
   xmlns:cc="http://creativecommons.org/ns#"
   xmlns:dc="http://purl.org/dc/elements/1.1/"><defs
     id="defs2"><rect
       x="-111.68176"
       y="-1344.3276"
       width="409.01578"
       height="78.120975"
       id="rect1168" /><filter
       inkscape:collect="always"
       style="color-interpolation-filters:sRGB"
       id="filter984"
       x="-0.011386905"
       width="1.0227738"
       y="-0.012682872"
       height="1.0253657"><feGaussianBlur
         inkscape:collect="always"
         stdDeviation="0.81439781"
         id="feGaussianBlur986" /></filter><filter
       inkscape:collect="always"
       style="color-interpolation-filters:sRGB"
       id="filter984-2"
       x="-0.011386905"
       width="1.0227738"
       y="-0.012682872"
       height="1.0253657"><feGaussianBlur
         inkscape:collect="always"
         stdDeviation="0.81439781"
         id="feGaussianBlur986-5" /></filter><filter
       inkscape:collect="always"
       style="color-interpolation-filters:sRGB"
       id="filter984-5"
       x="-0.011386905"
       width="1.0227738"
       y="-0.012682872"
       height="1.0253657"><feGaussianBlur
         inkscape:collect="always"
         stdDeviation="0.81439781"
         id="feGaussianBlur986-3" /></filter><rect
       x="-111.68176"
       y="-1344.3276"
       width="409.01578"
       height="78.120972"
       id="rect1168-9" /><rect
       x="-111.68176"
       y="-1344.3276"
       width="409.01578"
       height="78.120972"
       id="rect1168-9-7" /><rect
       x="-111.68176"
       y="-1344.3276"
       width="409.01578"
       height="78.120972"
       id="rect1168-9-7-9" /><rect
       x="-111.68176"
       y="-1344.3276"
       width="468.28276"
       height="82.423689"
       id="rect1168-9-7-6" /></defs><sodipodi:namedview
     id="base"
     pagecolor="#ffffff"
     bordercolor="#666666"
     borderopacity="1.0"
     inkscape:pageopacity="0.0"
     inkscape:pageshadow="2"
     inkscape:zoom="0.5"
     inkscape:cx="490"
     inkscape:cy="523"
     inkscape:document-units="mm"
     inkscape:current-layer="layer1"
     showgrid="false"
     showguides="false"
     inkscape:window-width="1920"
     inkscape:window-height="1032"
     inkscape:window-x="0"
     inkscape:window-y="25"
     inkscape:window-maximized="1"
     inkscape:showpageshadow="2"
     inkscape:pagecheckerboard="0"
     inkscape:deskcolor="#d1d1d1" /><metadata
     id="metadata5"><rdf:RDF><cc:Work
         rdf:about=""><dc:format>image/svg+xml</dc:format><dc:type
           rdf:resource="http://purl.org/dc/dcmitype/StillImage" /></cc:Work></rdf:RDF></metadata><g
     inkscape:label="Layer 1"
     inkscape:groupmode="layer"
     id="layer1"><rect
       style="opacity:0.95;fill:none;fill-opacity:1;stroke:none;stroke-width:2.39937;stroke-linejoin:round;stroke-miterlimit:4;stroke-dasharray:none;stroke-opacity:1;filter:url(#filter984)"
       id="rect982"
       width="171.64934"
       height="154.10979"
       x="-224.81898"
       y="5.5050907"
       inkscape:export-xdpi="433.99875"
       inkscape:export-ydpi="433.99875" /><rect
       style="opacity:0.95;fill:none;fill-opacity:1;stroke:none;stroke-width:2.39937;stroke-linejoin:round;stroke-miterlimit:4;stroke-dasharray:none;stroke-opacity:1;filter:url(#filter984-2)"
       id="rect982-5"
       width="171.64934"
       height="154.10979"
       x="-654.10651"
       y="293.61127"
       transform="matrix(2.4159459,0,0,0.78339444,927.14094,86.582125)"
       inkscape:export-xdpi="266"
       inkscape:export-ydpi="266" /><flowRoot
       xml:space="preserve"
       id="flowRoot1057"
       style="font-style:normal;font-weight:normal;font-size:40px;line-height:1.25;font-family:sans-serif;letter-spacing:0px;word-spacing:0px;fill:#000000;fill-opacity:1;stroke:none"><flowRegion
         id="flowRegion1059"><rect
           id="rect1061"
           width="1933.4951"
           height="669.54175"
           x="-2631.7629"
           y="1120.3099" /></flowRegion><flowPara
         id="flowPara1063" /></flowRoot><flowRoot
       xml:space="preserve"
       id="flowRoot1065"
       style="font-style:normal;font-weight:normal;font-size:40px;line-height:1.25;font-family:sans-serif;letter-spacing:0px;word-spacing:0px;fill:#000000;fill-opacity:1;stroke:none"><flowRegion
         id="flowRegion1067"><rect
           id="rect1069"
           width="1241.8563"
           height="3595.196"
           x="-1895.9301"
           y="921.43622" /></flowRegion><flowPara
         id="flowPara1071" /></flowRoot><flowRoot
       xml:space="preserve"
       id="flowRoot849"
       style="font-style:normal;font-variant:normal;font-weight:normal;font-stretch:normal;font-size:40px;line-height:1.25;font-family:Norasi;-inkscape-font-specification:Norasi;letter-spacing:0px;word-spacing:0px;fill:#000000;fill-opacity:1;stroke:none"><flowRegion
         id="flowRegion851"><rect
           id="rect853"
           width="153.125"
           height="157.8125"
           x="682.8125"
           y="330.33218" /></flowRegion><flowPara
         id="flowPara855" /></flowRoot><rect
       style="opacity:0.95;fill:none;fill-opacity:1;stroke:none;stroke-width:2.39937;stroke-linejoin:round;stroke-miterlimit:4;stroke-dasharray:none;stroke-opacity:1;filter:url(#filter984-5)"
       id="rect982-56"
       width="171.64934"
       height="154.10979"
       x="-186.96948"
       y="191.29716"
       inkscape:export-xdpi="433.99875"
       inkscape:export-ydpi="433.99875" /><g
       id="g1788"
       transform="matrix(0.5183677,0,0,0.5183677,193.56248,236.19683)"><g
         id="g540"
         transform="translate(-41.608829,-244.22669)"><flowRoot
           xml:space="preserve"
           id="flowRoot869-6-0-2"
           style="font-style:normal;font-weight:normal;font-size:265.627px;line-height:1.25;font-family:sans-serif;letter-spacing:0px;word-spacing:0px;fill:#000000;fill-opacity:1;stroke:none;stroke-opacity:1"
           transform="matrix(0.26458333,0,0,0.26458333,306.2348,-454.4292)"
           inkscape:export-xdpi="593.26587"
           inkscape:export-ydpi="593.26587"
           inkscape:export-filename="vuldetta_line.png"><flowRegion
             id="flowRegion871-7-4-9"
             style="font-size:265.627px;stroke:none;stroke-opacity:1"><rect
               id="rect873-7-0-1"
               width="665.88416"
               height="320.08487"
               x="-1767.767"
               y="928.06531"
               style="font-size:265.627px;stroke:none;stroke-opacity:1" /></flowRegion><flowPara
             id="flowPara875-3-2-2"
             style="font-style:normal;font-variant:normal;font-weight:normal;font-stretch:normal;font-size:146.667px;font-family:'Trebuchet MS';-inkscape-font-specification:'Trebuchet MS';stroke:none;stroke-opacity:1">Vuldetta</flowPara></flowRoot><path
           style="fill:#000000;stroke:#000000;stroke-width:1.97168;stroke-miterlimit:4;stroke-dasharray:none;stroke-opacity:1"
           d="m -196.01722,-136.4434 c -4.77144,-0.84461 -9.25788,-3.26618 -12.60059,-6.80145 -9.27711,-9.81154 -7.89197,-25.49854 2.96763,-33.60895 11.31942,-8.45384 27.58047,-4.45939 33.79089,8.30053 5.97185,12.26985 -0.33892,27.07278 -13.35061,31.31588 -3.32321,1.08364 -7.45528,1.38724 -10.80732,0.79399 z m 7.45818,-1.87666 c 5.408,-0.92324 10.52972,-4.25534 13.57918,-8.83434 6.91595,-10.38489 3.21457,-24.52494 -7.86409,-30.04258 -6.79745,-3.38537 -14.64462,-2.91101 -20.91417,1.26434 -6.22521,4.14577 -9.81201,11.74592 -9.04957,19.17549 1.24476,12.12994 12.23706,20.48777 24.24865,18.43709 z"
           id="path942-7-9"
           inkscape:connector-curvature="0"
           sodipodi:nodetypes="csssccscscss"
           inkscape:export-xdpi="593.26587"
           inkscape:export-ydpi="593.26587" /><path
           style="fill:#ff0000;fill-opacity:1;stroke-width:0.126087"
           d="m -194.70854,-141.44082 c 0.0694,0 -0.51065,-0.66206 -1.13478,-1.3172 -0.62413,-0.65515 -1.13479,-1.23832 -1.13479,-1.29594 0,-0.0575 0.17022,-0.25408 0.37826,-0.43664 0.48554,-0.42605 0.47607,-0.55764 -0.0631,-0.87572 -0.24482,-0.14444 -0.4413,-0.36156 -0.4413,-0.48764 0,-0.12608 0.19648,-0.34319 0.4413,-0.48764 0.24272,-0.14321 0.44131,-0.31614 0.44131,-0.38432 0,-0.0681 -0.19859,-0.27538 -0.44131,-0.46052 -0.53188,-0.40567 -0.55314,-0.60795 -0.0946,-0.89975 0.66631,-0.424 0.68301,-0.58947 0.0946,-0.93666 -0.3869,-0.22828 -0.4413,-0.32229 -0.4413,-0.76259 0,-0.38252 -0.10139,-0.0464 -0.42561,-0.44674 -0.68851,-0.85024 -0.85343,-1.29488 -0.96755,-2.60881 -0.16992,-1.95612 -0.44263,-2.63123 -2.36526,-5.85521 -2.21694,-3.71752 -2.76652,-5.22617 -2.62245,-7.19883 0.39288,-5.3792 4.50384,-9.53233 10.06106,-10.16424 5.55984,-0.63222 10.86567,2.90939 12.20509,8.14684 0.79473,3.10755 0.39688,4.70724 -2.29205,9.21623 -1.92263,3.22398 -2.19534,3.89909 -2.36526,5.85521 -0.11412,1.31393 -0.27904,1.75857 -0.96755,2.60881 -0.32421,0.40035 -0.42561,0.0642 -0.42561,0.44674 0,0.4403 -0.0544,0.53431 -0.4413,0.76259 -0.58845,0.34719 -0.57174,0.51266 0.0945,0.93666 0.45857,0.2918 0.43731,0.49408 -0.0945,0.89975 -0.24272,0.18514 -0.44131,0.39238 -0.44131,0.46052 0,0.0681 0.19859,0.24111 0.44131,0.38432 0.56134,0.3312 0.56134,0.64409 0,0.97528 -0.53911,0.31808 -0.54858,0.44967 -0.0631,0.87572 0.20804,0.18256 0.37826,0.37906 0.37826,0.43664 0,0.0575 -0.51066,0.64079 -1.13479,1.29594 -0.62413,0.65514 -1.13478,1.24789 -1.13478,1.3172 0,0.0797 -0.92572,0.12601 -2.52175,0.12601 -1.59603,0 -2.60143,-0.12601 -2.52175,-0.12601 z m 7.51774,-9.75909 c 0.26583,-0.40171 0.3555,-0.73458 0.43763,-1.62464 0.1962,-2.12627 0.59818,-3.18029 2.48983,-6.52857 1.83772,-3.2528 2.28719,-4.43859 2.28594,-6.03076 -0.002,-2.74304 -1.47881,-5.50535 -3.846,-7.19456 -3.71586,-2.65156 -9.01092,-2.65156 -12.72678,0 -2.36718,1.68921 -3.84385,4.45152 -3.846,7.19456 -0.001,1.59217 0.44822,2.77796 2.28594,6.03076 1.89166,3.34828 2.29364,4.4023 2.48984,6.52857 0.0821,0.89006 0.1718,1.22293 0.43762,1.62464 l 0.33434,0.5052 h 4.66165 4.66166 z m -7.56049,-2.86763 c -0.0454,-1.30027 -0.0828,-2.79222 -0.083,-3.31541 l -3.5e-4,-0.95125 -1.82827,-2.14365 c -1.53297,-1.79742 -1.82827,-3.90624 -1.82827,-3.93017 0,-0.024 0.10769,-0.1011 0.23931,-0.17159 0.21692,-0.1161 -0.48039,0.88956 2.22911,3.62057 l 1.98981,2.0056 0.0933,2.08046 c 0.0513,1.14423 0.129,2.7755 0.17265,3.625 l 0.0794,1.54458 h -0.49052 -0.49052 z m 4.14471,0.81956 c 0.0436,-0.8495 0.12134,-2.48077 0.17265,-3.625 l 0.0933,-2.08046 1.98981,-2.0056 c 2.7095,-2.73101 2.01219,-3.73667 2.22911,-3.62057 0.13162,0.0705 0.2393,0.14764 0.2393,0.17159 0,0.024 -0.29529,2.13275 -1.82826,3.93017 l -1.82827,2.14365 -3.8e-4,0.95125 c -2.5e-4,0.52319 -0.0375,2.01514 -0.083,3.31541 l -0.0826,2.36414 h -0.49052 -0.49051 l 0.0794,-1.54458 z m -5.74797,-11.20653 c -0.16638,-0.4887 -0.3408,-0.88853 -0.3876,-0.88853 -0.0468,0 -0.20781,0.1844 -0.35778,0.40978 -0.16417,0.24673 -0.24663,0.30945 -0.20721,0.1576 0.036,-0.13867 0.1315,-0.52167 0.21221,-0.85107 0.16239,-0.66273 0.5324,-0.83133 0.6918,-0.31522 0.0482,0.15603 0.20228,0.59321 0.34245,0.97153 l 0.25483,0.68782 0.32801,-0.94001 c 0.44583,-1.27768 0.68447,-1.28046 1.129,-0.0131 0.35448,1.01054 0.31221,1.02488 0.78155,-0.26484 0.36876,-1.01331 0.60932,-0.97548 1.00224,0.15762 0.16833,0.48544 0.33855,0.8826 0.37826,0.8826 0.0397,0 0.20993,-0.39716 0.37826,-0.8826 0.39292,-1.1331 0.63349,-1.17093 1.00225,-0.15762 0.46934,1.28972 0.42706,1.27538 0.78154,0.26484 0.44453,-1.26726 0.68318,-1.26447 1.12901,0.0131 l 0.328,0.94001 0.25484,-0.68782 c 0.14016,-0.37832 0.29426,-0.8155 0.34245,-0.97153 0.15939,-0.51611 0.5294,-0.34751 0.69179,0.31522 0.0807,0.3294 0.17622,0.7124 0.21222,0.85107 0.0394,0.15185 -0.043,0.0891 -0.20722,-0.1576 -0.14997,-0.22538 -0.31097,-0.40978 -0.35777,-0.40978 -0.0468,0 -0.22123,0.39983 -0.38761,0.88853 -0.25134,0.73827 -0.34509,0.88222 -0.55437,0.85111 -0.18471,-0.0275 -0.32181,-0.24524 -0.51415,-0.81666 -0.14425,-0.42853 -0.29655,-0.81271 -0.33845,-0.85371 -0.0419,-0.041 -0.21661,0.30964 -0.38824,0.77919 -0.44193,1.20897 -0.70004,1.21712 -1.10254,0.0349 -0.16694,-0.49034 -0.34449,-0.84711 -0.39456,-0.79285 -0.0501,0.0542 -0.2184,0.4533 -0.37405,0.88672 -0.19911,0.55442 -0.34776,0.78805 -0.5014,0.78805 -0.15364,0 -0.30229,-0.23363 -0.50139,-0.78805 -0.15566,-0.43342 -0.32398,-0.83244 -0.37405,-0.88672 -0.0501,-0.0542 -0.22763,0.30251 -0.39456,0.79285 -0.40251,1.18229 -0.66062,1.17413 -1.10254,-0.0349 -0.17164,-0.46955 -0.34635,-0.82017 -0.38825,-0.77919 -0.0419,0.041 -0.1942,0.42518 -0.33845,0.85371 -0.19233,0.57142 -0.32944,0.78919 -0.51415,0.81666 -0.20927,0.0312 -0.30303,-0.11283 -0.55437,-0.85111 z"
           id="path3481"
           sodipodi:nodetypes="ssssssssssssssssssssssssssssssssssssssssssssscccssscsssscsscccssscssssccsccccsssssssscssssssssscssssssscssssssssssssscs" /></g><g
         id="g548"
         transform="translate(-40.738838,-225.66002)"><flowRoot
           xml:space="preserve"
           id="flowRoot869-6-0-2-3"
           style="font-style:normal;font-weight:normal;font-size:265.627px;line-height:1.25;font-family:sans-serif;letter-spacing:0px;word-spacing:0px;fill:#000000;fill-opacity:1;stroke:none;stroke-opacity:1"
           transform="matrix(0.26458333,0,0,0.26458333,306.89761,-345.45463)"
           inkscape:export-xdpi="593.26587"
           inkscape:export-ydpi="593.26587"><flowRegion
             id="flowRegion871-7-4-9-6"
             style="font-size:265.627px;stroke:none;stroke-opacity:1"><rect
               id="rect873-7-0-1-7"
               width="1096.0155"
               height="331.4563"
               x="-1767.767"
               y="928.06531"
               style="font-size:265.62667847px;stroke:none;stroke-opacity:1" /></flowRegion><flowPara
             id="flowPara875-3-2-2-5"
             style="font-style:normal;font-variant:normal;font-weight:normal;font-stretch:normal;font-size:146.667px;font-family:'Trebuchet MS';-inkscape-font-specification:'Trebuchet MS';stroke:none;stroke-opacity:1">Scanvus</flowPara></flowRoot><path
           style="fill:#ff0000;fill-opacity:1;stroke:#ff0000;stroke-width:0.10145;stroke-miterlimit:4;stroke-dasharray:none;stroke-opacity:1"
           d="m -184.75953,-42.546606 c -4.79975,-4.80155 -5.78458,-5.70542 -6.21666,-5.70542 -0.3258,0 -0.70707,-0.19353 -1.04326,-0.52977 -0.71226,-0.71226 -0.71226,-1.49048 0,-2.20278 0.71232,-0.71231 1.49056,-0.71231 2.20282,0 0.33516,0.33519 0.52976,0.71764 0.52976,1.04111 0,0.42924 0.91714,1.42876 5.71355,6.22698 l 5.71353,5.71562 -0.59825,0.57984 -0.59826,0.57987 z m 6.07038,1.53913 c -0.51987,-0.54263 -0.5222,-0.55445 -0.20316,-1.04212 0.58899,-0.90037 1.53019,-3.01548 1.83249,-4.11812 0.74188,-2.70597 0.51132,-6.39353 -0.56841,-9.09068 -1.36067,-3.39885 -4.50714,-6.5505 -7.89305,-7.906 -1.33439,-0.53414 -3.59572,-1.0369 -4.66417,-1.0369 h -0.73258 v -0.91521 -0.9152 l 1.13276,0.11613 c 5.88691,0.60353 10.68294,3.83111 13.18541,8.87332 1.20935,2.43672 1.68611,4.46097 1.68611,7.15908 0,2.39653 -0.42902,4.49002 -1.3253,6.46667 -0.60476,1.33378 -1.59078,2.9579 -1.79581,2.9579 -0.0706,0 -0.36507,-0.24699 -0.65429,-0.54887 z m -3.4235,-3.42264 -0.50578,-0.52787 0.46972,-1.17416 c 1.90507,-4.76196 -0.0435,-10.057 -4.51039,-12.25599 -1.04168,-0.51282 -1.92726,-0.76377 -3.57928,-1.01429 -0.66828,-0.10119 -0.67965,-0.11655 -0.67965,-0.91036 v -0.80735 h 0.69598 c 1.06669,0 3.36906,0.6497 4.61691,1.30286 1.48407,0.77686 3.84433,3.13707 4.62116,4.62119 1.26439,2.41547 1.62273,5.45445 0.95232,8.07577 -0.35601,1.39198 -1.16801,3.21814 -1.43094,3.21814 -0.0793,0 -0.37186,-0.23757 -0.65005,-0.52794 z m -3.53578,-3.53538 c -0.58132,-0.60035 -0.61795,-0.70987 -0.57658,-1.72352 0.0781,-1.91508 -0.98421,-3.61862 -2.78999,-4.4738 -0.49841,-0.23597 -1.13048,-0.42991 -1.40462,-0.43087 -0.47761,-0.003 -0.49841,-0.0401 -0.49841,-0.9162 v -0.91441 l 0.67965,0.11393 c 2.63577,0.4417 4.55768,1.96475 5.42069,4.29561 0.35952,0.97097 0.38402,3.28399 0.0433,4.09061 l -0.25331,0.59972 z"
           id="path942-70"
           inkscape:connector-curvature="0"
           sodipodi:nodetypes="cscccssccccccccsscccssscscccsccscscccscccccscscccc"
           inkscape:export-xdpi="593.26587"
           inkscape:export-ydpi="593.26587" /><path
           style="fill:#000000;stroke:#000000;stroke-width:1.97168;stroke-miterlimit:4;stroke-dasharray:none;stroke-opacity:1"
           d="m -195.35441,-27.468836 c -4.77144,-0.84461 -9.25788,-3.26618 -12.60059,-6.80145 -9.2771,-9.81154 -7.89196,-25.49854 2.96763,-33.60895 11.31942,-8.45384 27.58047,-4.45939 33.79089,8.30053 5.97185,12.26985 -0.33892,27.07278 -13.35061,31.31588 -3.32321,1.08364 -7.45528,1.38724 -10.80732,0.79399 z m 7.45818,-1.87666 c 5.408,-0.92324 10.52972,-4.25534 13.57918,-8.83434 6.91595,-10.38489 3.21457,-24.52494 -7.86409,-30.04258 -6.79745,-3.38537 -14.64462,-2.91101 -20.91417,1.26434 -6.22521,4.14577 -9.81201,11.74592 -9.04957,19.17549 1.24476,12.12994 12.23706,20.48777 24.24865,18.43709 z"
           id="path942-7-9-3"
           inkscape:connector-curvature="0"
           sodipodi:nodetypes="csssccscscss"
           inkscape:export-xdpi="593.26587"
           inkscape:export-ydpi="593.26587" /></g><g
         id="g1714"
         transform="translate(-15.247776)"><path
           style="fill:#000000;stroke-width:0.699995"
           d="m -117.62934,-370.51125 c 0.17987,0.48124 0.40624,12.78257 0.50303,27.33628 l 0.17598,26.46129 3.8014,-2.83646 c 2.38715,-1.78121 4.55261,-2.83646 5.82062,-2.83646 1.83154,0 1.33416,0.58898 -5.3513,6.33676 l -7.37051,6.33676 -7.39993,-6.16176 c -6.69651,-5.57605 -7.22509,-6.18341 -5.5607,-6.38947 1.33608,-0.16541 2.97057,0.66114 5.97484,3.02143 l 4.13562,3.24913 V -343.69 -371.38625 h 2.47195 c 1.35958,0 2.61913,0.39375 2.799,0.875 z"
           id="path562" /><path
           style="fill:#000000;stroke-width:0.699995"
           d="m -158.08181,-310.58808 c 0.17987,-0.48124 0.40624,-12.78257 0.50303,-27.33628 l 0.17598,-26.46129 3.8014,2.83646 c 2.38715,1.78121 4.55261,2.83646 5.82062,2.83646 1.83154,0 1.33416,-0.58898 -5.3513,-6.33676 l -7.37051,-6.33676 -7.39993,6.16176 c -6.69651,5.57605 -7.22509,6.18341 -5.5607,6.38947 1.33608,0.16541 2.97057,-0.66114 5.97484,-3.02143 l 4.13562,-3.24913 v 27.69625 27.69625 h 2.47195 c 1.35958,0 2.61913,-0.39375 2.799,-0.875 z"
           id="path562-5" /></g><g
         id="g1371"
         transform="translate(0.44831211,6.879167)"><g
           id="g1112"
           transform="rotate(90,38.076899,-250.09815)"><path
             style="fill:#000000;stroke-width:0.699995"
             d="m -11.098566,-193.38867 c -0.17987,-0.48124 -0.40624,-12.78257 -0.50303,-27.33628 l -0.17598,-26.46129 -3.8014,2.83646 c -2.38715,1.78121 -4.55261,2.83646 -5.82062,2.83646 -1.83154,0 -1.33416,-0.58898 5.3513,-6.33676 l 7.3705099,-6.33676 7.39993,6.16176 c 6.69651,5.57605 7.22509,6.18341 5.5607,6.38947 -1.33608,0.16541 -2.97057,-0.66114 -5.97484,-3.02143 l -4.13562,-3.24913 v 27.69625 27.69625 h -2.47195 c -1.35958,0 -2.6191299,-0.39375 -2.7989999,-0.875 z"
             id="path562-6" /><path
             style="fill:#000000;stroke-width:0.699995"
             d="m 29.353904,-253.31184 c -0.17987,0.48124 -0.40624,12.78257 -0.50303,27.33628 l -0.17598,26.46129 -3.8014,-2.83646 c -2.38715,-1.78121 -4.55261,-2.83646 -5.82062,-2.83646 -1.83154,0 -1.33416,0.58898 5.3513,6.33676 l 7.37051,6.33676 7.39993,-6.16176 c 6.69651,-5.57605 7.22509,-6.18341 5.5607,-6.38947 -1.33608,-0.16541 -2.97057,0.66114 -5.97484,3.02143 l -4.13562,3.24913 v -27.69625 -27.69625 h -2.47195 c -1.35958,0 -2.61913,0.39375 -2.799,0.875 z"
             id="path562-5-2" /></g></g><path
         style="fill:#f47421;fill-opacity:1;stroke-width:0.112511"
         d="m 141.80779,-235.53196 c -1.31888,-0.10102 -2.12954,-0.22372 -4.1693,-0.631 -6.5022,-1.29834 -12.85595,-5.08306 -17.11806,-10.1967 -4.43226,-5.31777 -6.80008,-11.19284 -7.30294,-18.1202 -0.21147,-2.91311 0.14893,-6.52377 0.97049,-9.72313 1.09385,-4.25968 3.21608,-8.37788 6.12896,-11.89326 1.40014,-1.68974 2.05949,-2.3535 3.75426,-3.77928 2.54138,-2.13804 5.09888,-3.7138 7.99799,-4.92785 2.43391,-1.01924 4.00639,-1.47463 6.82778,-1.97735 5.68318,-1.01265 11.68302,-0.32154 17.13711,1.974 24.85161,11.52774 24.28343,46.30967 0,56.90906 -2.44051,1.022 -4.02967,1.48154 -6.83405,1.97622 -2.63863,0.46545 -4.86736,0.58288 -7.39224,0.38949 z m 14.31767,-9.47354 c 0.83621,-0.38283 1.68899,-1.19694 2.07309,-1.97908 0.27329,-0.55649 0.31078,-0.76204 0.31078,-1.70405 0,-0.98399 -0.0301,-1.13248 -0.37038,-1.82359 -0.40425,-0.82114 -0.97229,-1.38581 -1.87984,-1.8687 -0.50107,-0.2666 -0.68554,-0.29933 -1.68767,-0.2994 -1.3444,-1.1e-4 -1.873,0.19696 -2.76407,1.03045 -1.91968,1.79564 -1.6691,4.84809 0.51716,6.29968 0.34245,0.22737 0.86152,0.48072 1.15349,0.56299 0.77967,0.21971 1.89083,0.12809 2.64744,-0.2183 z m -8.75474,-4.17532 c 1.76518,-0.3284 1.61225,-0.24803 1.81558,-0.95423 0.53777,-1.86776 1.90275,-3.30325 3.66955,-3.85912 0.84095,-0.26457 2.11775,-0.30103 3.05698,-0.0873 l 0.66632,0.15164 0.72334,-0.77867 c 1.54361,-1.66166 3.13996,-4.5039 3.78991,-6.74781 0.30119,-1.03983 0.62349,-2.82498 0.62349,-3.45331 v -0.43212 l -2.89673,0.03 -2.89674,0.03 -0.0824,0.67506 c -0.18935,1.55182 -1.13614,3.8361 -2.14516,5.17552 -0.27969,0.37129 -0.8804,1.03313 -1.33489,1.47076 -2.09304,2.01538 -4.53216,3.05022 -7.46453,3.16698 -1.75699,0.0699 -2.73414,-0.0646 -4.31994,-0.59479 -0.64329,-0.21508 -1.18147,-0.37734 -1.19593,-0.36058 -0.0746,0.0865 -2.7537,4.9219 -2.7537,4.9701 0,0.0933 0.99056,0.50565 2.30648,0.96023 1.08418,0.37451 2.49161,0.68826 3.76913,0.84019 0.77592,0.0923 3.78624,-0.0383 4.66921,-0.20263 z m -11.14555,-5.12825 c 0.77733,-1.29799 1.41332,-2.40439 1.41332,-2.45865 0,-0.0542 -0.30538,-0.3386 -0.67863,-0.63184 -1.92265,-1.51052 -3.46253,-4.09376 -3.99434,-6.70075 -0.24904,-1.22082 -0.24922,-3.11952 -4.2e-4,-4.44254 0.48715,-2.59041 2.04579,-5.22746 3.99475,-6.75864 0.37325,-0.29325 0.67864,-0.57758 0.67864,-0.63184 0,-0.12206 -2.79013,-4.79136 -2.90577,-4.86283 -0.14041,-0.0868 -1.69685,1.15575 -2.68275,2.14164 -1.99947,1.99947 -3.54733,4.55923 -4.3144,7.13494 l -0.24131,0.8103 0.44845,0.46358 c 2.13755,2.20967 2.13684,5.58149 -0.002,7.79202 l -0.4501,0.46526 0.30406,0.99684 c 0.86555,2.83768 2.90443,5.90658 5.18945,7.81108 1.2279,1.02338 1.51182,1.23141 1.68073,1.23141 0.0807,0 0.78266,-1.06199 1.55999,-2.35998 z m -10.48963,-8.41641 c 1.45194,-0.71486 2.26374,-2.01484 2.26374,-3.62505 0,-1.61079 -0.81198,-2.91062 -2.26449,-3.62505 -0.68139,-0.33514 -0.84376,-0.3689 -1.76472,-0.36702 -0.87864,0.002 -1.10031,0.044 -1.65749,0.31581 -0.84791,0.41358 -1.60862,1.16902 -1.97751,1.96381 -0.38519,0.8299 -0.4717,2.10821 -0.19836,2.93116 0.78505,2.36354 3.40163,3.48814 5.59883,2.40634 z m 35.98035,-5.07296 c 0,-1.82563 -1.05169,-5.18909 -2.27373,-7.27171 -0.58795,-1.00201 -1.84672,-2.68199 -2.43777,-3.25352 l -0.45579,-0.44074 -0.6391,0.14302 c -3.04531,0.68152 -5.86782,-0.97367 -6.72251,-3.94224 l -0.18147,-0.6303 -0.87366,-0.18416 c -3.08377,-0.65002 -6.45401,-0.47867 -9.14323,0.46487 -1.28694,0.45153 -2.17395,0.80771 -2.28786,0.91869 -0.0516,0.0503 0.5306,1.2129 1.29387,2.58355 1.0055,1.80562 1.43427,2.47782 1.55655,2.44031 0.0928,-0.0285 0.53656,-0.18071 0.98611,-0.33828 1.49044,-0.52246 2.48495,-0.66344 4.23463,-0.60033 2.40222,0.0867 4.32043,0.70386 6.17765,1.98776 0.90739,0.62727 2.38475,2.08995 2.96912,2.93959 0.87253,1.26864 1.74228,3.44325 1.89408,4.73571 0.0389,0.331 0.0903,0.6651 0.11434,0.74245 0.0334,0.10771 0.71645,0.14064 2.91621,0.14064 h 2.87256 z m -5.45678,-12.52981 c 0.89727,-0.46448 1.47311,-1.03443 1.87984,-1.86059 0.34022,-0.6911 0.37038,-0.83959 0.37038,-1.82359 0,-0.94201 -0.0375,-1.14755 -0.31078,-1.70404 -0.38345,-0.78083 -1.23231,-1.5919 -2.08368,-1.99093 -0.53964,-0.25294 -0.7975,-0.30154 -1.59969,-0.30154 -0.82957,0 -1.04583,0.0438 -1.63141,0.33023 -0.90996,0.44514 -1.76824,1.33738 -2.08538,2.16788 -0.28385,0.74334 -0.33986,1.94201 -0.1259,2.69511 0.30172,1.06206 1.44494,2.26305 2.51847,2.64571 0.87202,0.31084 2.30474,0.23695 3.06815,-0.15824 z"
         id="path598"
         sodipodi:nodetypes="sssssssssccsssssssssssssssscssscccssssssssssscssssssssscsscsssccsssccsssssscsscsssssssssssscssssssssssss" /><path
         style="fill:#000000;fill-opacity:1;stroke-width:0.129684"
         d="m 114.61514,-195.39456 c -0.004,-0.0535 -9.8e-4,-1.19807 0.007,-2.5435 0.0127,-2.08418 0.0524,-2.54636 0.26806,-3.12273 0.29924,-0.79978 1.1821,-1.77161 1.8898,-2.08023 0.27555,-0.12017 0.60234,-0.27193 0.72619,-0.33727 0.12486,-0.0659 2.41281,-0.11878 5.13559,-0.11878 4.91766,0 5.20451,-0.0223 6.23799,-0.48441 0.65108,-0.29113 1.59348,-1.22439 1.95912,-1.94011 0.31726,-0.62101 0.31851,-0.63896 0.38314,-5.4862 l 0.0648,-4.86314 h 12.51449 12.5145 l 0.0649,4.86314 c 0.0646,4.84724 0.0659,4.86519 0.38314,5.4862 0.36564,0.71572 1.30804,1.64898 1.95911,1.94011 1.03349,0.46214 1.32034,0.48441 6.238,0.48441 2.72277,0 5.01072,0.0529 5.13558,0.11878 0.12385,0.0653 0.43144,0.208 0.68353,0.31702 0.63144,0.27311 1.46577,1.12238 1.83073,1.86351 0.28033,0.56928 0.30979,0.82527 0.3697,3.21226 0.0358,1.42652 0.0469,2.63745 0.0247,2.69094 -0.0222,0.0535 -13.16737,0.0973 -29.21155,0.0973 -16.04417,0 -29.17467,-0.0438 -29.17888,-0.0973 z m -23.465132,-25.7532 c -2.73416,-0.91147 -4.53874,-2.69345 -5.53754,-5.4682 -0.2225,-0.61815 -0.23523,-2.50707 -0.27253,-40.46138 -0.0299,-30.35026 -0.003,-39.98249 0.11472,-40.52622 0.0846,-0.3923 0.38753,-1.20931 0.67314,-1.81558 0.93449,-1.98371 2.94993,-3.67016 5.21673,-4.3652 0.74995,-0.22995 2.6476,-0.23858 52.457142,-0.23858 h 51.67904 l 0.90778,0.30282 c 1.54333,0.51481 2.3905,1.03743 3.50147,2.16004 1.21956,1.23234 1.75017,2.17316 2.21671,3.9304 0.1549,0.58342 0.18244,6.65677 0.18244,40.22811 0,42.97994 0.0487,40.06537 -0.69732,41.695 -1.10267,2.40854 -3.00557,3.99032 -5.6311,4.6808 -0.58229,0.15314 -8.56835,0.17907 -52.32745,0.16986 l -51.640292,-0.0109 z m 102.998932,-14.1246 c 0.0192,-3.37016 0.019,-20.61488 -4.9e-4,-38.3216 l -0.0353,-32.19403 H 143.80771 93.502348 l -0.0414,0.29179 c -0.0228,0.16048 -0.0267,17.4052 -0.009,38.3216 l 0.0328,38.0298 h 50.314422 50.31442 z"
         id="path598-2"
         sodipodi:nodetypes="ccsssssssccccsssssssssccssccssscssssssscscccccsccccc" /><text
         xml:space="preserve"
         transform="matrix(0.26458333,0,0,0.26458333,-3.8538277,31.718806)"
         id="text1166"
         style="font-size:48px;line-height:1;font-family:sans-serif;-inkscape-font-specification:sans-serif;white-space:pre;shape-inside:url(#rect1168);display:inline;fill:#000000;fill-opacity:1;stroke-width:2.17323"><tspan
           x="-111.68164"
           y="-1306.6541"
           id="tspan2006">ssh commands </tspan></text><text
         xml:space="preserve"
         transform="matrix(0.26458333,0,0,0.26458333,-1.917076,129.55581)"
         id="text1166-1"
         style="font-size:48px;line-height:1;font-family:sans-serif;-inkscape-font-specification:sans-serif;white-space:pre;shape-inside:url(#rect1168-9);display:inline;fill:#000000;fill-opacity:1;stroke-width:2.17323"><tspan
           x="-111.68164"
           y="-1306.6541"
           id="tspan2008">inventory data</tspan></text><text
         xml:space="preserve"
         transform="matrix(0.26458333,0,0,0.26458333,-254.46057,11.041841)"
         id="text1166-1-0"
         style="font-size:48px;line-height:1;font-family:sans-serif;-inkscape-font-specification:sans-serif;white-space:pre;shape-inside:url(#rect1168-9-7);display:inline;fill:#000000;fill-opacity:1;stroke-width:2.17323"><tspan
           x="-111.68164"
           y="-1306.6541"
           id="tspan2010">inventory data</tspan></text><g
         id="g1752"
         transform="translate(-32.515544)"><path
           style="fill:#000000;stroke-width:0.699995"
           d="m -120.58781,-240.68714 c 0.17987,0.48124 0.40624,12.78257 0.50303,27.33628 l 0.17598,26.46129 3.8014,-2.83646 c 2.38715,-1.78121 4.55261,-2.83646 5.82062,-2.83646 1.83154,0 1.33416,0.58898 -5.3513,6.33676 l -7.37051,6.33676 -7.39993,-6.16176 c -6.69651,-5.57605 -7.22509,-6.18341 -5.5607,-6.38947 1.33608,-0.16541 2.97057,0.66114 5.97484,3.02143 l 4.13562,3.24913 v -27.69625 -27.69625 h 2.47195 c 1.35958,0 2.61913,0.39375 2.799,0.875 z"
           id="path562-60" /><text
           xml:space="preserve"
           transform="matrix(0.26458333,0,0,0.26458333,-150.47279,187.16497)"
           id="text1166-1-0-2"
           style="font-size:48px;line-height:1;font-family:sans-serif;-inkscape-font-specification:sans-serif;white-space:pre;shape-inside:url(#rect1168-9-7-6);display:inline;fill:#000000;fill-opacity:1;stroke-width:2.17323"><tspan
             x="-111.68164"
             y="-1306.6541"
             id="tspan2012">vulnerability report</tspan></text></g><text
         xml:space="preserve"
         transform="matrix(0.26458333,0,0,0.26458333,-82.687177,7.5952293)"
         id="text1166-1-0-3"
         style="font-size:48px;line-height:1;font-family:sans-serif;-inkscape-font-specification:sans-serif;white-space:pre;shape-inside:url(#rect1168-9-7-9);display:inline;fill:#000000;fill-opacity:1;stroke-width:2.17323"><tspan
           x="-111.68164"
           y="-1306.6541"
           id="tspan2014">vulnerabilities</tspan></text></g></g></svg>
